<mxfile host="app.diagrams.net" modified="2023-07-05T07:00:47.921Z" agent="Mozilla/5.0 (Macintosh; Intel Mac OS X 10_15_7) AppleWebKit/537.36 (KHTML, like Gecko) Chrome/114.0.0.0 Safari/537.36" etag="FKuKtIAsf4kCymJ5og7G" version="21.5.2" type="github">
  <diagram name="第 1 页" id="Hirs34b7jqaWPxaMW2Qh">
    <mxGraphModel dx="2947" dy="868" grid="1" gridSize="10" guides="1" tooltips="1" connect="1" arrows="1" fold="1" page="1" pageScale="1" pageWidth="827" pageHeight="1169" math="0" shadow="0">
      <root>
        <mxCell id="0" />
        <mxCell id="1" parent="0" />
        <mxCell id="KZPl8S83SJ2lAdZHIwsL-1" value="HPC" style="rounded=1;whiteSpace=wrap;html=1;fontFamily=Verdana;" parent="1" vertex="1">
          <mxGeometry x="160" y="425" width="120" height="60" as="geometry" />
        </mxCell>
        <mxCell id="KZPl8S83SJ2lAdZHIwsL-2" value="" style="endArrow=none;dashed=1;html=1;rounded=0;fontFamily=Verdana;" parent="1" edge="1">
          <mxGeometry width="50" height="50" relative="1" as="geometry">
            <mxPoint x="40" y="380" as="sourcePoint" />
            <mxPoint x="930" y="380" as="targetPoint" />
          </mxGeometry>
        </mxCell>
        <mxCell id="KZPl8S83SJ2lAdZHIwsL-3" value="data source" style="text;html=1;strokeColor=none;fillColor=none;align=center;verticalAlign=middle;whiteSpace=wrap;rounded=0;fontFamily=Verdana;" parent="1" vertex="1">
          <mxGeometry x="30" y="425" width="100" height="30" as="geometry" />
        </mxCell>
        <mxCell id="KZPl8S83SJ2lAdZHIwsL-4" value="data collect" style="text;html=1;strokeColor=none;fillColor=none;align=center;verticalAlign=middle;whiteSpace=wrap;rounded=0;fontFamily=Verdana;" parent="1" vertex="1">
          <mxGeometry x="20" y="290" width="110" height="30" as="geometry" />
        </mxCell>
        <mxCell id="KZPl8S83SJ2lAdZHIwsL-5" value="user tools" style="text;html=1;strokeColor=none;fillColor=none;align=center;verticalAlign=middle;whiteSpace=wrap;rounded=0;fontFamily=Verdana;" parent="1" vertex="1">
          <mxGeometry x="30" y="170" width="100" height="30" as="geometry" />
        </mxCell>
        <mxCell id="KZPl8S83SJ2lAdZHIwsL-6" value="tracepoint" style="rounded=1;whiteSpace=wrap;html=1;fontFamily=Verdana;" parent="1" vertex="1">
          <mxGeometry x="320" y="425" width="120" height="60" as="geometry" />
        </mxCell>
        <mxCell id="KZPl8S83SJ2lAdZHIwsL-7" value="kprobe/kretprobe" style="rounded=1;whiteSpace=wrap;html=1;fontFamily=Verdana;" parent="1" vertex="1">
          <mxGeometry x="480" y="425" width="120" height="60" as="geometry" />
        </mxCell>
        <mxCell id="KZPl8S83SJ2lAdZHIwsL-8" value="BPF HOOK" style="rounded=1;whiteSpace=wrap;html=1;fontFamily=Verdana;" parent="1" vertex="1">
          <mxGeometry x="640" y="425" width="120" height="60" as="geometry" />
        </mxCell>
        <mxCell id="KZPl8S83SJ2lAdZHIwsL-9" value="" style="endArrow=none;dashed=1;html=1;rounded=0;fontFamily=Verdana;" parent="1" edge="1">
          <mxGeometry width="50" height="50" relative="1" as="geometry">
            <mxPoint x="40" y="240" as="sourcePoint" />
            <mxPoint x="930" y="240" as="targetPoint" />
          </mxGeometry>
        </mxCell>
        <mxCell id="KZPl8S83SJ2lAdZHIwsL-10" value="perf" style="rounded=1;whiteSpace=wrap;html=1;fontFamily=Verdana;" parent="1" vertex="1">
          <mxGeometry x="160" y="155" width="120" height="60" as="geometry" />
        </mxCell>
        <mxCell id="KZPl8S83SJ2lAdZHIwsL-11" value="func-graph" style="rounded=1;whiteSpace=wrap;html=1;fontFamily=Verdana;" parent="1" vertex="1">
          <mxGeometry x="320" y="155" width="120" height="60" as="geometry" />
        </mxCell>
        <mxCell id="KZPl8S83SJ2lAdZHIwsL-12" value="system-tap" style="rounded=1;whiteSpace=wrap;html=1;fontFamily=Verdana;" parent="1" vertex="1">
          <mxGeometry x="480" y="155" width="120" height="60" as="geometry" />
        </mxCell>
        <mxCell id="KZPl8S83SJ2lAdZHIwsL-13" value="bpftrace" style="rounded=1;whiteSpace=wrap;html=1;fontFamily=Verdana;" parent="1" vertex="1">
          <mxGeometry x="640" y="155" width="120" height="60" as="geometry" />
        </mxCell>
        <mxCell id="KZPl8S83SJ2lAdZHIwsL-14" value="trace-cmd" style="rounded=1;whiteSpace=wrap;html=1;fontFamily=Verdana;" parent="1" vertex="1">
          <mxGeometry x="320" y="60" width="120" height="60" as="geometry" />
        </mxCell>
        <mxCell id="KZPl8S83SJ2lAdZHIwsL-15" value="perf event" style="rounded=1;whiteSpace=wrap;html=1;fontFamily=Verdana;" parent="1" vertex="1">
          <mxGeometry x="160" y="275" width="120" height="60" as="geometry" />
        </mxCell>
        <mxCell id="KZPl8S83SJ2lAdZHIwsL-16" value="tracefs" style="rounded=1;whiteSpace=wrap;html=1;fontFamily=Verdana;" parent="1" vertex="1">
          <mxGeometry x="320" y="275" width="120" height="60" as="geometry" />
        </mxCell>
        <mxCell id="KZPl8S83SJ2lAdZHIwsL-17" value="system-tap&lt;br&gt;kernel mod" style="rounded=1;whiteSpace=wrap;html=1;fontFamily=Verdana;" parent="1" vertex="1">
          <mxGeometry x="480" y="275" width="120" height="60" as="geometry" />
        </mxCell>
        <mxCell id="KZPl8S83SJ2lAdZHIwsL-18" value="eBPF" style="rounded=1;whiteSpace=wrap;html=1;fontFamily=Verdana;" parent="1" vertex="1">
          <mxGeometry x="640" y="275" width="120" height="60" as="geometry" />
        </mxCell>
        <mxCell id="KZPl8S83SJ2lAdZHIwsL-19" value="Syscall TracePoint" style="text;html=1;strokeColor=none;fillColor=none;align=center;verticalAlign=middle;whiteSpace=wrap;rounded=0;fontFamily=Verdana;fontSize=20;fontStyle=0" parent="1" vertex="1">
          <mxGeometry x="40" y="1100" width="300" height="60" as="geometry" />
        </mxCell>
        <mxCell id="KZPl8S83SJ2lAdZHIwsL-21" value="SYSCALL_TRACE_ENTER_EVENT" style="rounded=1;whiteSpace=wrap;html=1;fontFamily=Verdana;" parent="1" vertex="1">
          <mxGeometry x="180" y="1640" width="230" height="60" as="geometry" />
        </mxCell>
        <mxCell id="KZPl8S83SJ2lAdZHIwsL-30" style="edgeStyle=orthogonalEdgeStyle;rounded=0;orthogonalLoop=1;jettySize=auto;html=1;fontFamily=Verdana;" parent="1" source="KZPl8S83SJ2lAdZHIwsL-22" target="KZPl8S83SJ2lAdZHIwsL-21" edge="1">
          <mxGeometry relative="1" as="geometry" />
        </mxCell>
        <mxCell id="KZPl8S83SJ2lAdZHIwsL-22" value="SYSCALL_METADATA" style="rounded=1;whiteSpace=wrap;html=1;fontFamily=Verdana;" parent="1" vertex="1">
          <mxGeometry x="180" y="1530" width="230" height="60" as="geometry" />
        </mxCell>
        <mxCell id="KZPl8S83SJ2lAdZHIwsL-28" style="edgeStyle=orthogonalEdgeStyle;rounded=0;orthogonalLoop=1;jettySize=auto;html=1;fontFamily=Verdana;" parent="1" source="KZPl8S83SJ2lAdZHIwsL-24" target="KZPl8S83SJ2lAdZHIwsL-22" edge="1">
          <mxGeometry relative="1" as="geometry" />
        </mxCell>
        <mxCell id="KZPl8S83SJ2lAdZHIwsL-24" value="SYSCALL_DEFINE0" style="rounded=1;whiteSpace=wrap;html=1;fontFamily=Verdana;" parent="1" vertex="1">
          <mxGeometry x="60" y="1410" width="230" height="60" as="geometry" />
        </mxCell>
        <mxCell id="KZPl8S83SJ2lAdZHIwsL-29" style="edgeStyle=orthogonalEdgeStyle;rounded=0;orthogonalLoop=1;jettySize=auto;html=1;fontFamily=Verdana;" parent="1" source="KZPl8S83SJ2lAdZHIwsL-25" target="KZPl8S83SJ2lAdZHIwsL-22" edge="1">
          <mxGeometry relative="1" as="geometry" />
        </mxCell>
        <mxCell id="KZPl8S83SJ2lAdZHIwsL-25" value="SYSCALL_DEFINEx" style="rounded=1;whiteSpace=wrap;html=1;fontFamily=Verdana;" parent="1" vertex="1">
          <mxGeometry x="360" y="1410" width="230" height="60" as="geometry" />
        </mxCell>
        <mxCell id="KZPl8S83SJ2lAdZHIwsL-27" value="Net TracePoint" style="text;html=1;strokeColor=none;fillColor=none;align=center;verticalAlign=middle;whiteSpace=wrap;rounded=0;fontFamily=Verdana;fontSize=20;fontStyle=0" parent="1" vertex="1">
          <mxGeometry x="941" y="1100" width="300" height="60" as="geometry" />
        </mxCell>
        <mxCell id="KZPl8S83SJ2lAdZHIwsL-31" value="TRACE_EVENT(net_dev_xmit" style="rounded=1;whiteSpace=wrap;html=1;fontFamily=Verdana;" parent="1" vertex="1">
          <mxGeometry x="1000" y="1260" width="230" height="60" as="geometry" />
        </mxCell>
        <mxCell id="KZPl8S83SJ2lAdZHIwsL-32" value="&lt;div&gt;#define TRACE_EVENT(name, proto, args, struct, assign, print)&lt;span style=&quot;white-space: pre;&quot;&gt;&amp;nbsp;&amp;nbsp;&amp;nbsp;&amp;nbsp;&lt;/span&gt;\&lt;/div&gt;&lt;div&gt;&lt;span style=&quot;&quot;&gt;&lt;span style=&quot;&quot;&gt;&lt;span style=&quot;white-space: pre;&quot;&gt;&amp;nbsp;&amp;nbsp;&amp;nbsp;&amp;nbsp;&lt;/span&gt;&lt;/span&gt;DECLARE_TRACE(name, PARAMS(proto), PARAMS(args))&lt;/span&gt;&lt;/div&gt;" style="rounded=1;whiteSpace=wrap;html=1;fontFamily=Verdana;align=center;" parent="1" vertex="1">
          <mxGeometry x="1000" y="1380" width="440" height="60" as="geometry" />
        </mxCell>
        <mxCell id="KZPl8S83SJ2lAdZHIwsL-33" value="DECLARE_TRACE" style="rounded=1;whiteSpace=wrap;html=1;fontFamily=Verdana;" parent="1" vertex="1">
          <mxGeometry x="890" y="1510" width="230" height="60" as="geometry" />
        </mxCell>
        <mxCell id="KZPl8S83SJ2lAdZHIwsL-34" value="DEFINE_TRACE" style="rounded=1;whiteSpace=wrap;html=1;fontFamily=Verdana;" parent="1" vertex="1">
          <mxGeometry x="890" y="1610" width="230" height="60" as="geometry" />
        </mxCell>
        <mxCell id="KZPl8S83SJ2lAdZHIwsL-39" style="edgeStyle=orthogonalEdgeStyle;rounded=0;orthogonalLoop=1;jettySize=auto;html=1;fontFamily=Verdana;" parent="1" source="KZPl8S83SJ2lAdZHIwsL-35" target="KZPl8S83SJ2lAdZHIwsL-38" edge="1">
          <mxGeometry relative="1" as="geometry" />
        </mxCell>
        <mxCell id="KZPl8S83SJ2lAdZHIwsL-35" value="__BPF_DECLARE_TRACE" style="rounded=1;whiteSpace=wrap;html=1;fontFamily=Verdana;" parent="1" vertex="1">
          <mxGeometry x="1360" y="1610" width="230" height="60" as="geometry" />
        </mxCell>
        <mxCell id="KZPl8S83SJ2lAdZHIwsL-36" value="__DEFINE_EVENT" style="rounded=1;whiteSpace=wrap;html=1;fontFamily=Verdana;" parent="1" vertex="1">
          <mxGeometry x="1860" y="1610" width="230" height="60" as="geometry" />
        </mxCell>
        <mxCell id="KZPl8S83SJ2lAdZHIwsL-37" value="DECLARE_TRACE" style="rounded=1;whiteSpace=wrap;html=1;fontFamily=Verdana;" parent="1" vertex="1">
          <mxGeometry x="1570" y="1500" width="230" height="60" as="geometry" />
        </mxCell>
        <mxCell id="KZPl8S83SJ2lAdZHIwsL-38" value="&lt;div&gt;static notrace void&lt;span style=&quot;white-space: pre;&quot;&gt;&amp;nbsp;&amp;nbsp;&amp;nbsp;&amp;nbsp;&lt;/span&gt;&lt;span style=&quot;white-space: pre;&quot;&gt;&amp;nbsp;&amp;nbsp;&amp;nbsp;&amp;nbsp;&lt;/span&gt;&lt;span style=&quot;white-space: pre;&quot;&gt;&amp;nbsp;&amp;nbsp;&amp;nbsp;&amp;nbsp;&lt;/span&gt;&lt;span style=&quot;white-space: pre;&quot;&gt;&amp;nbsp;&amp;nbsp;&amp;nbsp;&amp;nbsp;&lt;/span&gt;&lt;span style=&quot;white-space: pre;&quot;&gt;&amp;nbsp;&amp;nbsp;&amp;nbsp;&amp;nbsp;&lt;/span&gt;&lt;span style=&quot;white-space: pre;&quot;&gt;&amp;nbsp;&amp;nbsp;&amp;nbsp;&amp;nbsp;&lt;/span&gt;&lt;span style=&quot;white-space: pre;&quot;&gt;&amp;nbsp;&amp;nbsp;&amp;nbsp;&amp;nbsp;&lt;/span&gt;\&lt;/div&gt;&lt;div&gt;__bpf_trace_##call(void *__data, proto)&lt;span style=&quot;&quot;&gt;&lt;span style=&quot;white-space: pre;&quot;&gt;&amp;nbsp;&amp;nbsp;&amp;nbsp;&amp;nbsp;&lt;/span&gt;&lt;span style=&quot;white-space: pre;&quot;&gt;&amp;nbsp;&amp;nbsp;&amp;nbsp;&amp;nbsp;&lt;/span&gt;&lt;span style=&quot;white-space: pre;&quot;&gt;&amp;nbsp;&amp;nbsp;&amp;nbsp;&amp;nbsp;&lt;/span&gt;&lt;span style=&quot;white-space: pre;&quot;&gt;&amp;nbsp;&amp;nbsp;&amp;nbsp;&amp;nbsp;&lt;/span&gt;&lt;span style=&quot;white-space: pre;&quot;&gt;&amp;nbsp;&amp;nbsp;&amp;nbsp;&amp;nbsp;&lt;/span&gt;&lt;/span&gt;\&lt;/div&gt;&lt;div&gt;{&lt;span style=&quot;&quot;&gt;&lt;span style=&quot;white-space: pre;&quot;&gt;&amp;nbsp;&amp;nbsp;&amp;nbsp;&amp;nbsp;&lt;/span&gt;&lt;span style=&quot;white-space: pre;&quot;&gt;&amp;nbsp;&amp;nbsp;&amp;nbsp;&amp;nbsp;&lt;/span&gt;&lt;span style=&quot;white-space: pre;&quot;&gt;&amp;nbsp;&amp;nbsp;&amp;nbsp;&amp;nbsp;&lt;/span&gt;&lt;span style=&quot;white-space: pre;&quot;&gt;&amp;nbsp;&amp;nbsp;&amp;nbsp;&amp;nbsp;&lt;/span&gt;&lt;span style=&quot;white-space: pre;&quot;&gt;&amp;nbsp;&amp;nbsp;&amp;nbsp;&amp;nbsp;&lt;/span&gt;&lt;span style=&quot;white-space: pre;&quot;&gt;&amp;nbsp;&amp;nbsp;&amp;nbsp;&amp;nbsp;&lt;/span&gt;&lt;span style=&quot;white-space: pre;&quot;&gt;&amp;nbsp;&amp;nbsp;&amp;nbsp;&amp;nbsp;&lt;/span&gt;&lt;span style=&quot;white-space: pre;&quot;&gt;&amp;nbsp;&amp;nbsp;&amp;nbsp;&amp;nbsp;&lt;/span&gt;&lt;span style=&quot;white-space: pre;&quot;&gt;&amp;nbsp;&amp;nbsp;&amp;nbsp;&amp;nbsp;&lt;/span&gt;&lt;/span&gt;\&lt;/div&gt;&lt;div&gt;&lt;span style=&quot;&quot;&gt;&lt;span style=&quot;&quot;&gt;&lt;span style=&quot;white-space: pre;&quot;&gt;&amp;nbsp;&amp;nbsp;&amp;nbsp;&amp;nbsp;&lt;/span&gt;&lt;/span&gt;struct bpf_prog *prog = __data;&lt;span style=&quot;&quot;&gt;&lt;span style=&quot;white-space: pre;&quot;&gt;&amp;nbsp;&amp;nbsp;&amp;nbsp;&amp;nbsp;&lt;/span&gt;&lt;span style=&quot;white-space: pre;&quot;&gt;&amp;nbsp;&amp;nbsp;&amp;nbsp;&amp;nbsp;&lt;/span&gt;&lt;span style=&quot;white-space: pre;&quot;&gt;&amp;nbsp;&amp;nbsp;&amp;nbsp;&amp;nbsp;&lt;/span&gt;&lt;span style=&quot;white-space: pre;&quot;&gt;&amp;nbsp;&amp;nbsp;&amp;nbsp;&amp;nbsp;&lt;/span&gt;&lt;span style=&quot;white-space: pre;&quot;&gt;&amp;nbsp;&amp;nbsp;&amp;nbsp;&amp;nbsp;&lt;/span&gt;&lt;/span&gt;\&lt;/span&gt;&lt;/div&gt;&lt;div&gt;&lt;span style=&quot;&quot;&gt;&lt;span style=&quot;&quot;&gt;&lt;span style=&quot;white-space: pre;&quot;&gt;&amp;nbsp;&amp;nbsp;&amp;nbsp;&amp;nbsp;&lt;/span&gt;&lt;/span&gt;CONCATENATE(bpf_trace_run, COUNT_ARGS(args))(prog, CAST_TO_U64(args));&lt;span style=&quot;&quot;&gt;&lt;span style=&quot;white-space: pre;&quot;&gt;&amp;nbsp;&amp;nbsp;&amp;nbsp;&amp;nbsp;&lt;/span&gt;&lt;/span&gt;\&lt;/span&gt;&lt;/div&gt;&lt;div&gt;}&lt;/div&gt;" style="rounded=1;whiteSpace=wrap;html=1;fontFamily=Verdana;align=left;arcSize=8;" parent="1" vertex="1">
          <mxGeometry x="1195" y="1810" width="560" height="116" as="geometry" />
        </mxCell>
        <mxCell id="yIvQyhjBssw4aAH2rzGB-1" value="front-end" style="rounded=1;whiteSpace=wrap;html=1;arcSize=13;fontSize=22;fontFamily=Verdana;" vertex="1" parent="1">
          <mxGeometry x="-1140" y="270" width="230" height="70" as="geometry" />
        </mxCell>
        <mxCell id="yIvQyhjBssw4aAH2rzGB-3" value="Linux tracing概览" style="text;html=1;strokeColor=none;fillColor=none;align=center;verticalAlign=middle;whiteSpace=wrap;rounded=0;fontSize=40;fontFamily=Verdana;" vertex="1" parent="1">
          <mxGeometry x="-1420" y="140" width="360" height="85" as="geometry" />
        </mxCell>
        <mxCell id="yIvQyhjBssw4aAH2rzGB-5" value="" style="endArrow=none;dashed=1;html=1;rounded=0;strokeWidth=5;fontFamily=Verdana;" edge="1" parent="1">
          <mxGeometry width="50" height="50" relative="1" as="geometry">
            <mxPoint x="-1480" y="389" as="sourcePoint" />
            <mxPoint x="-810" y="389.38" as="targetPoint" />
          </mxGeometry>
        </mxCell>
        <mxCell id="yIvQyhjBssw4aAH2rzGB-6" value="user space" style="text;html=1;strokeColor=none;fillColor=none;align=center;verticalAlign=middle;whiteSpace=wrap;rounded=0;fontFamily=Verdana;fontSize=20;" vertex="1" parent="1">
          <mxGeometry x="-1480" y="330" width="160" height="40" as="geometry" />
        </mxCell>
        <mxCell id="yIvQyhjBssw4aAH2rzGB-7" value="kernel space" style="text;html=1;strokeColor=none;fillColor=none;align=center;verticalAlign=middle;whiteSpace=wrap;rounded=0;fontFamily=Verdana;fontSize=20;" vertex="1" parent="1">
          <mxGeometry x="-1480" y="420" width="160" height="40" as="geometry" />
        </mxCell>
        <mxCell id="yIvQyhjBssw4aAH2rzGB-8" value="tracing framework" style="rounded=1;whiteSpace=wrap;html=1;arcSize=13;fontSize=22;fontFamily=Verdana;" vertex="1" parent="1">
          <mxGeometry x="-1140" y="430" width="230" height="70" as="geometry" />
        </mxCell>
        <mxCell id="yIvQyhjBssw4aAH2rzGB-9" value="tracing source" style="rounded=1;whiteSpace=wrap;html=1;arcSize=13;fontSize=22;fontFamily=Verdana;" vertex="1" parent="1">
          <mxGeometry x="-1140" y="560" width="230" height="70" as="geometry" />
        </mxCell>
        <mxCell id="yIvQyhjBssw4aAH2rzGB-10" value="ftrace 概览" style="text;html=1;strokeColor=none;fillColor=none;align=center;verticalAlign=middle;whiteSpace=wrap;rounded=0;fontSize=40;fontFamily=Verdana;" vertex="1" parent="1">
          <mxGeometry x="-1400" y="860" width="360" height="85" as="geometry" />
        </mxCell>
        <mxCell id="yIvQyhjBssw4aAH2rzGB-11" value="front-end" style="rounded=1;whiteSpace=wrap;html=1;arcSize=13;fontSize=22;fontFamily=Verdana;" vertex="1" parent="1">
          <mxGeometry x="-1140" y="1090" width="230" height="70" as="geometry" />
        </mxCell>
        <mxCell id="yIvQyhjBssw4aAH2rzGB-12" value="" style="endArrow=none;dashed=1;html=1;rounded=0;strokeWidth=5;fontFamily=Verdana;" edge="1" parent="1">
          <mxGeometry width="50" height="50" relative="1" as="geometry">
            <mxPoint x="-1480" y="1209" as="sourcePoint" />
            <mxPoint y="1200" as="targetPoint" />
          </mxGeometry>
        </mxCell>
        <mxCell id="yIvQyhjBssw4aAH2rzGB-13" value="user space" style="text;html=1;strokeColor=none;fillColor=none;align=center;verticalAlign=middle;whiteSpace=wrap;rounded=0;fontFamily=Verdana;fontSize=20;" vertex="1" parent="1">
          <mxGeometry x="-1480" y="1150" width="160" height="40" as="geometry" />
        </mxCell>
        <mxCell id="yIvQyhjBssw4aAH2rzGB-14" value="kernel space" style="text;html=1;strokeColor=none;fillColor=none;align=center;verticalAlign=middle;whiteSpace=wrap;rounded=0;fontFamily=Verdana;fontSize=20;" vertex="1" parent="1">
          <mxGeometry x="-1480" y="1240" width="160" height="40" as="geometry" />
        </mxCell>
        <mxCell id="yIvQyhjBssw4aAH2rzGB-15" value="tracing framework" style="rounded=1;whiteSpace=wrap;html=1;arcSize=13;fontSize=22;fontFamily=Verdana;" vertex="1" parent="1">
          <mxGeometry x="-1140" y="1340" width="230" height="70" as="geometry" />
        </mxCell>
        <mxCell id="yIvQyhjBssw4aAH2rzGB-16" value="tracing source" style="rounded=1;whiteSpace=wrap;html=1;arcSize=13;fontSize=22;fontFamily=Verdana;" vertex="1" parent="1">
          <mxGeometry x="-1140" y="1470" width="230" height="70" as="geometry" />
        </mxCell>
        <mxCell id="yIvQyhjBssw4aAH2rzGB-17" value="trace-cmd" style="rounded=1;whiteSpace=wrap;html=1;arcSize=13;fontSize=22;fontFamily=Verdana;" vertex="1" parent="1">
          <mxGeometry x="-720" y="960" width="230" height="70" as="geometry" />
        </mxCell>
        <mxCell id="yIvQyhjBssw4aAH2rzGB-18" value="kernelShark" style="rounded=1;whiteSpace=wrap;html=1;arcSize=13;fontSize=22;fontFamily=Verdana;" vertex="1" parent="1">
          <mxGeometry x="-413" y="960" width="230" height="70" as="geometry" />
        </mxCell>
        <mxCell id="yIvQyhjBssw4aAH2rzGB-19" value="debugfs" style="rounded=1;whiteSpace=wrap;html=1;arcSize=13;fontSize=22;fontFamily=Verdana;" vertex="1" parent="1">
          <mxGeometry x="-550" y="1170" width="230" height="70" as="geometry" />
        </mxCell>
        <mxCell id="yIvQyhjBssw4aAH2rzGB-20" value="ftrace" style="rounded=1;whiteSpace=wrap;html=1;arcSize=13;fontSize=22;fontFamily=Verdana;" vertex="1" parent="1">
          <mxGeometry x="-550" y="1340" width="230" height="70" as="geometry" />
        </mxCell>
        <mxCell id="yIvQyhjBssw4aAH2rzGB-21" value="event" style="rounded=1;whiteSpace=wrap;html=1;arcSize=13;fontSize=22;fontFamily=Verdana;" vertex="1" parent="1">
          <mxGeometry x="-730" y="1480" width="230" height="70" as="geometry" />
        </mxCell>
        <mxCell id="yIvQyhjBssw4aAH2rzGB-22" value="tracer" style="rounded=1;whiteSpace=wrap;html=1;arcSize=13;fontSize=22;fontFamily=Verdana;" vertex="1" parent="1">
          <mxGeometry x="-340" y="1480" width="230" height="70" as="geometry" />
        </mxCell>
        <mxCell id="yIvQyhjBssw4aAH2rzGB-23" value="kprobe/kretprobe" style="rounded=1;whiteSpace=wrap;html=1;arcSize=13;fontSize=22;fontFamily=Verdana;" vertex="1" parent="1">
          <mxGeometry x="-827" y="1630" width="230" height="70" as="geometry" />
        </mxCell>
        <mxCell id="yIvQyhjBssw4aAH2rzGB-24" value="tracepoint" style="rounded=1;whiteSpace=wrap;html=1;arcSize=13;fontSize=22;fontFamily=Verdana;" vertex="1" parent="1">
          <mxGeometry x="-827" y="1730" width="230" height="70" as="geometry" />
        </mxCell>
      </root>
    </mxGraphModel>
  </diagram>
</mxfile>
